# xmcd CD database file
#
# Track frame offsets:
#	150
#	5205
#	20155
#	40452
#	45157
#	49802
#	64635
#	69322
#	94057
#	98945
#	103695
#	134627
#	139260
#	177072
#	181760
#	185672
#	213862
#	231202
#	233677
#	237552
#	264472
#	266750
#	270647
#	304715
#	307037
#	332787
#
# Disc length: 4468 seconds
#
# Revision: 2
# Processed by: cddbd v1.5.2PL0 Copyright (c) Steve Scherf et al.
# Submitted via: CDex 1.70beta2
#
DISCID=7d11721a
DTITLE=Various Artist - 魔女っ子MusicSampler1966～1981 Disc-1
DYEAR=1999
DGENRE=Soundtrack
TTITLE0=魔法使いサリーのうた (TVサイズ)／スリー・グレイセス ： 魔法使いサリーから
TTITLE1=かわいい魔女がやってきた ： 魔法使いサリーから
TTITLE2=すてきな学園 ： 魔法使いサリーから
TTITLE3=魔法のマンボ (TVサイズ)／前川陽子、ハニー・ナイツ ： 魔法使いサリーから
TTITLE4=サリーはかわいい魔法使い／平井道子 ： 魔法使いサリーから
TTITLE5=町は大騒動 ： 魔法使いサリーから
TTITLE6=いたずらのうた (TVヴァージョン)／加藤みどり、野沢雅子、平井道子、浅井ゆかり、千々松幸子 ： 魔法使いサリーから
TTITLE7=小さな魔法使い ： 魔法使いサリーから
TTITLE8=パパパのチョイナ／水垣洋子 ： 魔法使いサリーから
TTITLE9=ひみつのアッコちゃん (TVサイズ)／岡田恭子 ： ひみつのアッコちゃんから
TTITLE10=ふしぎな鏡でルル… ： ひみつのアッコちゃんから
TTITLE11=なかよしアッコちゃん (1コーラス)／スリー・グレイセス ： ひみつのアッコちゃんから
TTITLE12=愉快な仲間たち ： ひみつのアッコちゃんから
TTITLE13=すきすきソング (TVサイズ)／水森亜土 ： ひみつのアッコちゃんから
TTITLE14=魔法のマコちゃん (TVサイズ)／堀江美都子 ： 魔法のマコちゃんから
TTITLE15=海から来た少女 ： 魔法のマコちゃんから
TTITLE16=人魚の命 ： 魔法のマコちゃんから
TTITLE17=ボクはマコについていく (TVサイズ)／堀江美都子、コロムビア・メールハーモニー ： 魔法のマコちゃんから
TTITLE18=エッちゃん (TVサイズ)／増山江威子 ： さるとびエッちゃんから
TTITLE19=おかしなおかしなあの子 ： さるとびエッちゃんから
TTITLE20=エッちゃんが好きや (TVサイズ)／熊倉一雄 ： さるとびエッちゃんから
TTITLE21=魔法使いチャッピー (TVサイズ)／シンガーズ・スリー ： 魔法使いチャッピーから
TTITLE22=魔法家族がやって来た ： 魔法使いチャッピーから
TTITLE23=魔法のワルツ (1コーラス)／小野木久美子 ： 魔法使いチャッピーから
TTITLE24=チャッピー大活躍！ ： 魔法使いチャッピーから
TTITLE25=富田耕生/ドンちゃんのうた(TVサイズ)
EXTD=YEAR: 1999
EXTT0=
EXTT1=
EXTT2=
EXTT3=
EXTT4=
EXTT5=
EXTT6=
EXTT7=
EXTT8=
EXTT9=
EXTT10=
EXTT11=
EXTT12=
EXTT13=
EXTT14=
EXTT15=
EXTT16=
EXTT17=
EXTT18=
EXTT19=
EXTT20=
EXTT21=
EXTT22=
EXTT23=
EXTT24=
EXTT25=
PLAYORDER=
